<svg width="30" height="30" viewBox="0 0 30 30" fill="none" xmlns="http://www.w3.org/2000/svg">
<g clip-path="url(#clip0_19_24)">
<path d="M27.1429 26.768H22.5715C22.2414 26.768 21.9544 26.5418 21.8772 26.2209C21.7352 25.6315 21.2063 25.2173 20.6001 25.2209C19.9959 25.2235 19.4704 25.635 19.323 26.2209C19.2457 26.5417 18.9587 26.7679 18.6287 26.768H2.85717C1.27916 26.768 0 25.4889 0 23.9108V12.6537C0 11.0758 1.27916 9.79659 2.85717 9.79659H18.6286C18.9582 9.79652 19.2451 10.022 19.3229 10.3423C19.4707 10.9278 19.9961 11.3392 20.6 11.3423C21.2061 11.3454 21.7347 10.9314 21.8771 10.3423C21.9549 10.022 22.2418 9.79652 22.5714 9.79659H27.1428C28.7208 9.79659 30 11.0757 30 12.6537V23.9109C30 25.4889 28.7208 26.768 27.1429 26.768ZM23.07 25.3394H27.1429C27.9319 25.3394 28.5715 24.6998 28.5715 23.9108V12.6537C28.5715 11.8648 27.9319 11.2252 27.1429 11.2252H23.07C22.6116 12.1714 21.6514 12.7711 20.6 12.768C19.552 12.7608 18.5973 12.1641 18.1314 11.2252H2.85717C2.06819 11.2252 1.42858 11.8648 1.42858 12.6537V23.9109C1.42858 24.6999 2.06819 25.3395 2.85717 25.3395H18.1314C18.5972 24.4006 19.552 23.8039 20.6 23.7966C21.6516 23.7928 22.6121 24.3927 23.07 25.3394Z" fill="white"/>
<path d="M6.5286 11.2252C6.13424 11.2152 5.82258 10.8875 5.83251 10.4931C5.83954 10.2132 6.00948 9.96321 6.26717 9.85373L14.6529 6.55227C14.9522 6.43485 15.2932 6.53188 15.4858 6.7894C15.5595 6.89539 15.6497 6.98892 15.7529 7.06652C16.1235 7.3564 16.6186 7.43172 17.0586 7.26509C17.1638 7.22467 17.2628 7.16987 17.3529 7.10225C17.7391 6.81989 17.9406 6.34949 17.8786 5.87512C17.8326 5.54795 18.0169 5.23184 18.3244 5.11081L22.5829 3.43939C24.0341 2.85259 25.6862 3.55326 26.273 5.00446C26.2774 5.01511 26.2816 5.02582 26.2858 5.03653L27.2129 7.39225C27.3698 7.75426 27.2034 8.17479 26.8414 8.33161C26.4794 8.48843 26.0588 8.32205 25.902 7.96004C25.8956 7.94524 25.8897 7.93027 25.8843 7.91511L24.9557 5.55794C24.8196 5.20514 24.5473 4.92193 24.2 4.77221C23.8555 4.62032 23.4638 4.61569 23.1158 4.75934L19.3115 6.25078C19.2506 7.03272 18.8574 7.75101 18.2315 8.22363C18.0349 8.37318 17.8185 8.49481 17.5886 8.58504C16.6973 8.93284 15.6895 8.79509 14.9243 8.22075C14.8498 8.17202 14.7795 8.1171 14.7143 8.05647L6.79003 11.1751C6.7069 11.2084 6.61817 11.2254 6.5286 11.2252Z" fill="white"/>
<path d="M15.4756 18.9966H6.41561C6.14299 18.9966 5.89414 18.8414 5.77419 18.5965L5.11846 17.2551C4.94528 16.9001 5.09271 16.4719 5.44774 16.2987C5.80276 16.1255 6.231 16.2729 6.40418 16.628L6.85701 17.568H15.4713C15.8658 17.568 16.1856 17.8878 16.1856 18.2822C16.1856 18.6767 15.8658 18.9965 15.4713 18.9965H15.4756V18.9966Z" fill="white"/>
<path d="M9.75284 21.4695C9.35835 21.4695 9.03857 21.1497 9.03857 20.7552C9.03857 20.5304 9.14444 20.3187 9.3243 20.1837L12.5986 17.7109C12.9141 17.4742 13.3619 17.5381 13.5986 17.8538C13.8353 18.1693 13.7713 18.6171 13.4557 18.8538L10.1814 21.3252C10.0585 21.4194 9.90773 21.4702 9.75284 21.4695Z" fill="white"/>
<path d="M13.0286 18.9966C12.8741 18.9966 12.7237 18.9464 12.6 18.8537L9.3214 16.378C9.00584 16.1413 8.94183 15.6935 9.17854 15.378C9.41524 15.0624 9.86296 14.9984 10.1785 15.2351L13.4642 17.7094C13.7798 17.9461 13.8438 18.3938 13.6071 18.7094C13.4722 18.8892 13.2605 18.9951 13.0356 18.9951L13.0286 18.9966Z" fill="white"/>
<path d="M20.6 15.6866C20.2055 15.6866 19.8857 15.3668 19.8857 14.9723V14.4495C19.8857 14.055 20.2055 13.7352 20.6 13.7352C20.9945 13.7352 21.3143 14.055 21.3143 14.4495V14.9723C21.3143 15.3668 20.9945 15.6866 20.6 15.6866Z" fill="white"/>
<path d="M20.6 19.258C20.2055 19.258 19.8857 18.9382 19.8857 18.5437V18.0209C19.8857 17.6264 20.2055 17.3066 20.6 17.3066C20.9945 17.3066 21.3143 17.6264 21.3143 18.0209V18.5437C21.3143 18.9382 20.9945 19.258 20.6 19.258Z" fill="white"/>
<path d="M20.6 22.8295C20.2055 22.8295 19.8857 22.5097 19.8857 22.1152V21.5924C19.8857 21.1979 20.2055 20.8781 20.6 20.8781C20.9945 20.8781 21.3143 21.1979 21.3143 21.5924V22.1152C21.3143 22.5096 20.9945 22.8295 20.6 22.8295Z" fill="white"/>
<path d="M26.4286 21.8537C26.0341 21.8537 25.7144 21.5339 25.7144 21.1395V15.4251C25.7144 15.0307 26.0341 14.7109 26.4286 14.7109C26.8231 14.7109 27.1429 15.0307 27.1429 15.4251V21.1394C27.1429 21.5339 26.8231 21.8537 26.4286 21.8537Z" fill="white"/>
<path d="M23.5714 18.9966C23.177 18.9966 22.8572 18.6768 22.8572 18.2823V15.4251C22.8572 15.0307 23.177 14.7109 23.5714 14.7109C23.9659 14.7109 24.2857 15.0307 24.2857 15.4251V18.2823C24.2857 18.6768 23.9659 18.9966 23.5714 18.9966Z" fill="white"/>
</g>
<defs>
<clipPath id="clip0_19_24">
<rect width="30" height="30" fill="white"/>
</clipPath>
</defs>
</svg>
