<svg width="30" height="30" viewBox="0 0 30 30" fill="none" xmlns="http://www.w3.org/2000/svg">
<g clip-path="url(#clip0_18_200)">
<path d="M8.99711 6.45041C8.99711 4.91872 7.75098 3.67259 6.21929 3.67259C4.68759 3.67259 3.44141 4.91872 3.44141 6.45041C3.44141 7.98211 4.68753 9.22823 6.21923 9.22823C7.75092 9.22823 8.99711 7.98211 8.99711 6.45041ZM6.21923 7.47239C5.65568 7.47239 5.19725 7.01396 5.19725 6.45041C5.19725 5.88687 5.65568 5.42844 6.21923 5.42844C6.78277 5.42844 7.2412 5.88687 7.2412 6.45041C7.2412 7.01396 6.78277 7.47239 6.21923 7.47239Z" fill="white"/>
<path d="M29.9993 14.6658C29.9854 14.3199 29.7695 14.0144 29.4481 13.8858L20.116 10.153C19.8455 10.0448 19.539 10.0778 19.2977 10.2411C19.0565 10.4044 18.912 10.6767 18.912 10.9681V23.8444C17.839 24.1615 17.0071 25.0442 16.7625 26.1461H4.34445C3.4084 26.1461 2.64682 25.3845 2.64682 24.4485C2.64682 23.5124 3.4084 22.7508 4.34445 22.7508H12.2886C14.0948 22.7508 15.5643 21.2813 15.5643 19.4751C15.5643 17.6688 14.0948 16.1993 12.2886 16.1993H7.76731L11.5445 9.88434C12.1847 8.8141 12.523 7.58917 12.523 6.3421C12.523 2.88951 9.71414 0.0805969 6.26155 0.0805969C2.80897 0.0805969 0 2.88945 0 6.34204V6.36442C0 7.59474 0.329979 8.80551 0.954228 9.86569L5.46266 17.5226C5.60331 17.7487 5.86252 17.9573 6.21619 17.9551H12.2887C13.1267 17.9551 13.8086 18.6369 13.8086 19.475C13.8086 20.3131 13.1267 20.9949 12.2887 20.9949H4.34445C2.4402 20.9949 0.89092 22.5442 0.89092 24.4485C0.89092 26.3527 2.4402 27.902 4.34445 27.902H16.884C17.3244 29.0792 18.4605 29.9196 19.7895 29.9196C21.4995 29.9196 22.8906 28.5285 22.8906 26.8185C22.8906 25.4136 21.9513 24.2246 20.6679 23.8448V19.8776L29.5124 15.4875C29.8224 15.3335 30.0132 15.0117 29.9993 14.6658ZM2.46726 8.97477C2.00185 8.18428 1.75584 7.28164 1.75584 6.36436V6.34198C1.75584 3.8576 3.77706 1.83632 6.26149 1.83632C8.74593 1.83632 10.7671 3.8576 10.7671 6.34198C10.7671 7.27175 10.5149 8.18494 10.0376 8.98294L6.22513 15.357L2.46726 8.97477ZM21.1347 26.8184C21.1347 27.5602 20.5311 28.1637 19.7895 28.1637C19.0478 28.1637 18.4442 27.5602 18.4442 26.8184C18.4442 26.0775 19.0463 25.4746 19.7869 25.4732C19.7879 25.4732 19.789 25.4734 19.79 25.4734C19.7909 25.4734 19.7919 25.4733 19.7928 25.4733C20.533 25.475 21.1347 26.0777 21.1347 26.8184ZM20.6679 17.9172V12.2648L26.9737 14.7872L20.6679 17.9172Z" fill="white"/>
</g>
<defs>
<clipPath id="clip0_18_200">
<rect width="30" height="30" fill="white"/>
</clipPath>
</defs>
</svg>
