<svg width="25" height="25" viewBox="0 0 25 25" fill="none" xmlns="http://www.w3.org/2000/svg">
<g clip-path="url(#clip0_18_210)">
<path d="M20.6484 24.3359H4.35156C3.40457 24.3318 2.49766 23.9533 1.82877 23.2829C1.15987 22.6125 0.783304 21.7048 0.78125 20.7578V8.66406C0.785162 8.02297 0.961247 7.39471 1.29109 6.84496C1.62094 6.29522 2.09242 5.8442 2.65625 5.53906L10.7891 1.09375C11.3129 0.808613 11.8997 0.659225 12.4961 0.659225C13.0925 0.659225 13.6793 0.808613 14.2031 1.09375L22.3594 5.51562C22.9232 5.82076 23.3947 6.27179 23.7245 6.82153C24.0544 7.37127 24.2305 7.99953 24.2344 8.64062V20.7578C24.2323 21.7075 23.8536 22.6176 23.1813 23.2884C22.5091 23.9592 21.5981 24.3359 20.6484 24.3359ZM12.5 2.21875C12.1645 2.21825 11.8342 2.3015 11.5391 2.46094L3.38281 6.89062C3.06645 7.06583 2.80306 7.32292 2.62024 7.63494C2.43743 7.94697 2.34193 8.30243 2.34375 8.66406V20.7578C2.34375 21.2924 2.55611 21.8051 2.93411 22.1831C3.31212 22.5611 3.8248 22.7734 4.35938 22.7734H20.6484C21.1817 22.7714 21.6923 22.5581 22.0687 22.1803C22.445 21.8025 22.6563 21.291 22.6562 20.7578V8.66406C22.6565 8.30086 22.5587 7.94432 22.373 7.63215C22.1874 7.31998 21.9208 7.06378 21.6016 6.89062L13.4609 2.46875C13.1665 2.30659 12.8361 2.22065 12.5 2.21875Z" fill="white"/>
<path d="M12.5001 20.9062C11.4126 20.9065 10.3589 20.5286 9.51943 19.8373C8.67995 19.1461 8.10692 18.1845 7.8985 17.1172C7.8815 17.0052 7.88905 16.8909 7.92063 16.7821C7.9522 16.6734 8.00705 16.5728 8.08136 16.4873C8.15568 16.4018 8.24768 16.3336 8.35101 16.2872C8.45433 16.2408 8.5665 16.2175 8.67974 16.2187C8.86586 16.216 9.04683 16.2799 9.19006 16.3988C9.33329 16.5176 9.42937 16.6837 9.46099 16.8672C9.60813 17.5695 9.99246 18.1997 10.5494 18.6521C11.1064 19.1045 11.8021 19.3514 12.5196 19.3514C13.2371 19.3514 13.9328 19.1045 14.4898 18.6521C15.0467 18.1997 15.431 17.5695 15.5782 16.8672C15.6098 16.6837 15.7059 16.5176 15.8491 16.3988C15.9923 16.2799 16.1733 16.216 16.3594 16.2187C16.4727 16.2175 16.5848 16.2408 16.6882 16.2872C16.7915 16.3336 16.8835 16.4018 16.9578 16.4873C17.0321 16.5728 17.087 16.6734 17.1186 16.7821C17.1501 16.8909 17.1577 17.0052 17.1407 17.1172C16.931 18.1911 16.3522 19.1578 15.5047 19.8498C14.6571 20.5419 13.5942 20.9156 12.5001 20.9062Z" fill="white"/>
</g>
<defs>
<clipPath id="clip0_18_210">
<rect width="25" height="25" fill="white"/>
</clipPath>
</defs>
</svg>
