<svg width="35" height="35" viewBox="0 0 35 35" fill="none" xmlns="http://www.w3.org/2000/svg">
<g clip-path="url(#clip0_19_2)">
<path d="M34.8296 14.7351C34.6893 14.5756 34.4824 14.4903 34.2706 14.5046L27.7407 14.9431L20.2544 10.7205C19.8181 10.4744 19.4329 10.3875 18.8608 10.7139C17.6415 11.4101 14.6533 14.1001 13.613 15.892L7.84921 16.2791L7.80341 15.5969C7.73143 14.5239 6.83278 13.6835 5.75756 13.6835C5.71189 13.6835 5.66554 13.685 5.61995 13.6881C5.614 13.6885 5.60812 13.6889 5.60218 13.6895C4.48259 13.774 3.63562 14.7493 3.71095 15.8718L3.75682 16.5538L0.637794 16.7633C0.414737 16.7783 0.213078 16.9014 0.0978241 17.093C-0.0174295 17.2846 -0.0317166 17.5204 0.0596113 17.7245L1.32932 20.5636C1.32959 20.5642 1.32986 20.5648 1.33014 20.5654L2.60736 23.4213C2.71427 23.6603 2.9482 23.8173 3.20988 23.8255L24.6086 24.4985C24.6158 24.4987 24.6229 24.4989 24.6301 24.4989C27.543 24.4989 30.1066 23.3646 32.0437 21.2188C34.0989 18.9421 34.7868 16.3344 34.9871 15.319C35.0282 15.1105 34.97 14.8947 34.8296 14.7351ZM19.5387 11.9013C19.5432 11.8987 19.5475 11.8963 19.5516 11.894C19.5609 11.8991 19.5712 11.9048 19.5829 11.9114L25.254 15.1101L15.3507 15.7753C16.5194 14.2984 18.6472 12.4102 19.5387 11.9013ZM5.71141 15.0524C5.7149 15.0522 5.71839 15.0519 5.72181 15.0516C6.09505 15.032 6.41449 15.319 6.4393 15.6885L6.4851 16.3707L5.121 16.4623L5.07513 15.7803C5.0499 15.4041 5.3353 15.0776 5.71141 15.0524ZM32.8376 17.524L29.7529 17.731C29.3763 17.7563 29.0914 18.0822 29.1167 18.4588C29.1409 18.82 29.4414 19.0967 29.7981 19.0967C29.8134 19.0967 29.829 19.0962 29.8445 19.0951L32.0665 18.946C30.6558 21.1566 28.2868 23.1278 24.6406 23.1317L3.6806 22.4725L3.00767 20.9679L5.45233 20.9455C5.82995 20.9421 6.13312 20.6333 6.12964 20.2557C6.12622 19.8803 5.82086 19.5784 5.44625 19.5784C5.4442 19.5784 5.44201 19.5784 5.43989 19.5784L2.39873 19.6062L1.70803 18.0617L33.4307 15.9313C33.2834 16.4377 33.0871 16.977 32.8376 17.524Z" fill="white"/>
<path d="M27.8226 19.2294C27.8387 19.2294 27.8549 19.2289 27.8712 19.2277L27.8873 19.2266C28.264 19.2001 28.5478 18.8734 28.5213 18.4968C28.4949 18.1201 28.1676 17.8361 27.7915 17.8627L27.7754 17.8639C27.3987 17.8904 27.1149 18.2171 27.1414 18.5937C27.1667 18.954 27.4669 19.2294 27.8226 19.2294Z" fill="white"/>
<path d="M7.41004 20.9276C7.41195 20.9276 7.41394 20.9276 7.41585 20.9276L7.43192 20.9274C7.80946 20.9244 8.11298 20.6158 8.10983 20.2382C8.10669 19.8626 7.80133 19.5603 7.42645 19.5603C7.42446 19.5603 7.42255 19.5603 7.42057 19.5603L7.4045 19.5605C7.02702 19.5635 6.72351 19.8721 6.72659 20.2497C6.72973 20.6253 7.03516 20.9276 7.41004 20.9276Z" fill="white"/>
</g>
<defs>
<clipPath id="clip0_19_2">
<rect width="35" height="35" fill="white"/>
</clipPath>
</defs>
</svg>
