<svg width="25" height="25" viewBox="0 0 25 25" fill="none" xmlns="http://www.w3.org/2000/svg">
<g clip-path="url(#clip0_18_197)">
<path d="M22.3063 10.9831H21.862V5.83169C21.862 4.34644 20.6536 3.13804 19.1683 3.13804H5.83174C4.34644 3.13804 3.13809 4.34644 3.13809 5.83169V10.9831H2.69365C1.20835 10.9831 0 12.1914 0 13.6768V19.5606V21.1296C0 21.5341 0.32793 21.862 0.732422 21.862C1.13691 21.862 1.46484 21.5341 1.46484 21.1296V20.293H23.5352V21.1296C23.5352 21.5341 23.8631 21.862 24.2676 21.862C24.6721 21.862 25 21.5341 25 21.1296V19.5606V13.6768C25 12.1914 23.7917 10.9831 22.3063 10.9831ZM4.60293 5.83169C4.60293 5.15415 5.15415 4.60288 5.83174 4.60288H19.1683C19.8459 4.60288 20.3972 5.15415 20.3972 5.83169V10.9831H17.6416C17.8315 10.6143 17.9395 10.1968 17.9395 9.75425V8.96973C17.9395 7.48447 16.7312 6.27608 15.2458 6.27608H9.7543C8.26895 6.27608 7.06055 7.48447 7.06055 8.96973V9.75425C7.06055 10.1968 7.16851 10.6143 7.3584 10.9831H4.60293V5.83169ZM8.52539 9.75425V8.96973C8.52539 8.29219 9.07666 7.74092 9.7543 7.74092H15.2458C15.9234 7.74092 16.4747 8.29219 16.4747 8.96973V9.75425C16.4747 10.4318 15.9234 10.9831 15.2458 10.9831H9.7543C9.07666 10.9831 8.52539 10.4318 8.52539 9.75425ZM2.69365 12.4479H3.87051H9.7543H15.2458H21.1296H22.3064C22.984 12.4479 23.5352 12.9992 23.5352 13.6768V15.6901H1.46484V13.6768C1.46484 12.9992 2.01606 12.4479 2.69365 12.4479ZM1.46484 17.1549H23.5352V18.8281H1.46484V17.1549Z" fill="white"/>
</g>
<defs>
<clipPath id="clip0_18_197">
<rect width="25" height="25" fill="white"/>
</clipPath>
</defs>
</svg>
