<svg width="25" height="25" viewBox="0 0 25 25" fill="none" xmlns="http://www.w3.org/2000/svg">
<g clip-path="url(#clip0_18_206)">
<path d="M24.7935 3.31523L24.3147 3.21949C23.4278 3.04208 22.5295 3.08113 21.6865 3.31523C21.9207 2.47229 21.9597 1.57394 21.7823 0.687006L21.6866 0.208269L21.2078 0.112531C19.3459 -0.259875 17.4327 0.319434 16.0902 1.66201L10.4278 7.3244L8.40977 5.30634L9.4454 4.2707L5.82065 0.645899C4.96408 -0.210663 3.5703 -0.210712 2.71373 0.645899C2.32771 1.03193 2.10328 1.53639 2.07384 2.07733C1.5329 2.10677 1.02849 2.33115 0.642459 2.71722C-0.214153 3.57383 -0.214153 4.96757 0.642459 5.82418L4.26721 9.44894L5.30285 8.4133L7.32091 10.4314L0.860981 16.8912C-0.281135 18.0333 -0.281135 19.8917 0.860981 21.0338C1.45581 21.6286 2.27103 21.9372 3.11792 21.8838C3.0669 22.6945 3.34972 23.5225 3.96794 24.1407C5.11001 25.2828 6.96838 25.2829 8.11054 24.1407L14.5705 17.6808L18.7809 21.8912L17.7452 22.9269L18.7809 23.9626L19.8166 22.9269L21.8879 24.9982L22.9235 23.9626L20.8522 21.8913L21.8878 20.8556L23.9591 22.927L24.9948 21.8913L22.9235 19.82L23.9592 18.7844L22.9235 17.7487L21.8879 18.7844L17.6774 14.5739L23.3398 8.91152C24.6824 7.56894 25.2616 5.6558 24.8893 3.79392L24.7935 3.31523ZM4.26721 7.37761L1.67805 4.78845C1.39254 4.50294 1.39254 4.03832 1.67805 3.75281C1.96419 3.46662 2.42745 3.46662 2.71369 3.75281L5.3028 6.34193L4.26721 7.37761ZM3.74937 2.71717C3.46323 2.43103 3.46313 1.96777 3.74937 1.68154C4.03492 1.39603 4.4995 1.39598 4.78501 1.68154L7.37413 4.27065L6.33849 5.30629L3.74937 2.71717ZM6.33849 7.37761L7.37413 6.34198L9.39219 8.36004L8.35655 9.39567L6.33849 7.37761ZM1.89662 19.9982C1.32556 19.4271 1.32556 18.4979 1.89662 17.9268L17.1259 2.69765C17.9949 1.82863 19.1933 1.38495 20.4158 1.47903C20.5093 2.69384 20.0716 3.89454 19.1972 4.76897L3.96794 19.9982C3.39688 20.5692 2.46773 20.5692 1.89662 19.9982ZM20.8522 19.82L19.8166 20.8556L15.6061 16.6452L16.6418 15.6095L20.8522 19.82ZM22.3041 7.87588L7.0749 23.1051C6.50385 23.6761 5.57469 23.6761 5.00358 23.1051C4.43252 22.5341 4.43252 21.6049 5.00358 21.0338L20.2328 5.80461C21.1073 4.93018 22.3082 4.49254 23.5228 4.58599C23.6163 5.80075 23.1786 7.00145 22.3041 7.87588Z" fill="white"/>
</g>
<defs>
<clipPath id="clip0_18_206">
<rect width="25" height="25" fill="white"/>
</clipPath>
</defs>
</svg>
